<?xml version="1.0" encoding="UTF-8"?>
<svg width="64" height="64" viewBox="0 0 64 64" fill="none" xmlns="http://www.w3.org/2000/svg">
  <circle cx="32" cy="32" r="30" fill="#FFB02C" fill-opacity="0.1" stroke="#FFB02C" stroke-width="2"/>
  <path d="M40.5 27.5C40.5 24.5 38 22.5 34.5 22C34.5 22 34.5 20 34.5 19C34.5 18.5 34 18 33.5 18C33 18 32.5 18.5 32.5 19V22H30.5V19C30.5 18.5 30 18 29.5 18C29 18 28.5 18.5 28.5 19V22H25.5C25 22 24.5 22.5 24.5 23V41C24.5 41.5 25 42 25.5 42H28.5V45C28.5 45.5 29 46 29.5 46C30 46 30.5 45.5 30.5 45V42H32.5V45C32.5 45.5 33 46 33.5 46C34 46 34.5 45.5 34.5 45V42C39.5 41.5 42.5 38.5 42.5 35C42.5 32.5 41 30.5 38.5 29.5C39.5 29 40.5 28 40.5 27.5ZM28.5 25H35C37 25 38 26 38 27.5C38 29 37 30 35 30H28.5V25ZM36.5 38H28.5V33H36.5C39 33 40 34 40 35.5C40 37 39 38 36.5 38Z" fill="#FFB02C"/>
</svg> 